<svg t="1778760822143" class="icon" viewBox="0 0 1024 1024" version="1.1" xmlns="http://www.w3.org/2000/svg" p-id="1262" width="200" height="200"><path d="M292.8 184.6l-68.23 381.73 238.8 261.38 389.87-234.06L732.57 169l-69.39 87.93-307.02 33.17-63.36-105.5z" fill="#FC6037" p-id="1263"></path><path d="M180.37 372.52L865.39 338l-26.13 54.42L881 462.67l-714.5 66.68 56.22-84.08-42.35-72.75z" fill="#44110A" p-id="1264"></path><path d="M415.09 433.76m-54.36 0a54.36 54.36 0 1 0 108.72 0 54.36 54.36 0 1 0-108.72 0Z" fill="#FFFFFF" p-id="1265"></path><path d="M415.27 433.3m-18.73 0a18.73 18.73 0 1 0 37.46 0 18.73 18.73 0 1 0-37.46 0Z" fill="#000600" p-id="1266"></path><path d="M616.64 416.76m-54.36 0a54.36 54.36 0 1 0 108.72 0 54.36 54.36 0 1 0-108.72 0Z" fill="#FFFFFF" p-id="1267"></path><path d="M616.27 416.3m-18.73 0a18.73 18.73 0 1 0 37.46 0 18.73 18.73 0 1 0-37.46 0Z" fill="#000600" p-id="1268"></path><path d="M247.81 559.96s109.21-54.08 182.36 30.72c0 0 58.83 74.32 25.57 196.88l-207.93-227.6zM500.84 775.42S461.05 630 583.41 562.89c0 0 105.94-52.45 248.69 18.37L500.84 775.42z" fill="#FFFFF8" p-id="1269"></path><path d="M479.5 795.5m-56.5 0a56.5 56.5 0 1 0 113 0 56.5 56.5 0 1 0-113 0Z" fill="#44110A" p-id="1270"></path></svg>
